<svg width="120" height="80" viewBox="0 0 120 80" fill="none" xmlns="http://www.w3.org/2000/svg">
<rect x="13.3333" width="13.3333" height="13.3333" fill="#4641D9"/>
<rect x="26.6666" width="13.3333" height="13.3333" fill="#4641D9"/>
<rect x="40" width="13.3333" height="13.3333" fill="#4641D9"/>
<rect x="53.3333" width="13.3333" height="13.3333" fill="#4641D9"/>
<rect x="66.6666" width="13.3333" height="13.3333" fill="#4641D9"/>
<rect x="79.9999" width="13.3333" height="13.3333" fill="#4641D9"/>
<rect x="106.667" width="13.3333" height="13.3333" fill="#4641D9"/>
<rect y="13.3334" width="13.3333" height="13.3333" fill="#4641D9"/>
<rect x="40" y="13.3334" width="13.3333" height="13.3333" fill="#4641D9"/>
<rect x="40" y="13.3334" width="13.3333" height="13.3333" fill="white" fill-opacity="0.6"/>
<rect x="79.9999" y="13.3334" width="13.3333" height="13.3333" fill="#4641D9"/>
<rect x="106.667" y="13.3334" width="13.3333" height="13.3333" fill="#4641D9"/>
<rect y="26.6667" width="13.3333" height="13.3333" fill="#4641D9"/>
<rect y="26.6667" width="13.3333" height="13.3333" fill="white" fill-opacity="0.1"/>
<rect x="40" y="26.6667" width="13.3333" height="13.3333" fill="#4641D9"/>
<rect x="40" y="26.6667" width="13.3333" height="13.3333" fill="white" fill-opacity="0.2"/>
<rect x="79.9999" y="26.6667" width="13.3333" height="13.3333" fill="#4641D9"/>
<rect x="79.9999" y="26.6667" width="13.3333" height="13.3333" fill="white" fill-opacity="0.1"/>
<rect x="106.667" y="26.6667" width="13.3333" height="13.3333" fill="#4641D9"/>
<rect x="106.667" y="26.6667" width="13.3333" height="13.3333" fill="white" fill-opacity="0.1"/>
<rect y="40" width="13.3333" height="13.3333" fill="#4641D9"/>
<rect y="40" width="13.3333" height="13.3333" fill="white" fill-opacity="0.3"/>
<rect x="53.3333" y="40" width="13.3333" height="13.3333" fill="#4641D9"/>
<rect x="53.3333" y="40" width="13.3333" height="13.3333" fill="white" fill-opacity="0.2"/>
<rect x="66.6666" y="40" width="13.3333" height="13.3333" fill="#4641D9"/>
<rect x="66.6666" y="40" width="13.3333" height="13.3333" fill="white" fill-opacity="0.1"/>
<rect x="106.667" y="40" width="13.3333" height="13.3333" fill="#4641D9"/>
<rect x="106.667" y="40" width="13.3333" height="13.3333" fill="white" fill-opacity="0.3"/>
<rect y="53.3333" width="13.3333" height="13.3333" fill="#4641D9"/>
<rect y="53.3333" width="13.3333" height="13.3333" fill="white" fill-opacity="0.5"/>
<rect x="106.667" y="53.3333" width="13.3333" height="13.3333" fill="#4641D9"/>
<rect x="106.667" y="53.3333" width="13.3333" height="13.3333" fill="white" fill-opacity="0.5"/>
<rect x="13.3333" y="66.6666" width="13.3333" height="13.3333" fill="#4641D9"/>
<rect x="13.3333" y="66.6666" width="13.3333" height="13.3333" fill="white" fill-opacity="0.3"/>
<rect x="26.6666" y="66.6666" width="13.3333" height="13.3333" fill="#4641D9"/>
<rect x="26.6666" y="66.6666" width="13.3333" height="13.3333" fill="white" fill-opacity="0.2"/>
<rect x="40" y="66.6666" width="13.3333" height="13.3333" fill="#4641D9"/>
<rect x="40" y="66.6666" width="13.3333" height="13.3333" fill="white" fill-opacity="0.5"/>
<rect x="53.3333" y="66.6666" width="13.3333" height="13.3333" fill="#4641D9"/>
<rect x="53.3333" y="66.6666" width="13.3333" height="13.3333" fill="white" fill-opacity="0.7"/>
<rect x="66.6666" y="66.6666" width="13.3333" height="13.3333" fill="#4641D9"/>
<rect x="66.6666" y="66.6666" width="13.3333" height="13.3333" fill="white" fill-opacity="0.6"/>
<rect x="79.9999" y="66.6666" width="13.3333" height="13.3333" fill="#4641D9"/>
<rect x="79.9999" y="66.6666" width="13.3333" height="13.3333" fill="white" fill-opacity="0.3"/>
<rect x="93.3333" y="66.6666" width="13.3333" height="13.3333" fill="#4641D9"/>
<rect x="93.3333" y="66.6666" width="13.3333" height="13.3333" fill="white" fill-opacity="0.6"/>
</svg>
