<svg width="1024" height="1024" viewBox="0 0 1024 1024" fill="none" xmlns="http://www.w3.org/2000/svg">
<rect width="1024" height="1024" fill="#2070CB"/>
<path d="M696.327 244.847C770.022 244.847 829.763 304.588 829.763 378.282V551.643C829.763 625.337 770.022 685.078 696.327 685.078H327.673C253.978 685.078 194.237 625.337 194.237 551.643V378.282C194.237 304.588 253.978 244.847 327.673 244.847H696.327ZM335.081 375.931C325.95 375.931 316.818 377.48 307.687 380.578C298.555 383.513 290.239 388.487 282.738 395.498C275.401 402.347 269.367 411.478 264.639 422.893C260.073 434.144 257.79 448.167 257.79 464.962C257.79 481.105 259.828 494.884 263.904 506.298C268.144 517.549 273.77 526.762 280.781 533.937C287.793 540.948 295.865 546.085 304.996 549.346C314.29 552.444 324.074 553.993 334.347 553.993C342.826 553.993 351.061 553.177 359.051 551.547C367.204 549.916 373.89 547.226 379.107 543.476L372.259 516.082C368.508 518.365 364.106 520.24 359.051 521.707C353.996 523.175 347.8 523.908 340.462 523.908C332.635 523.908 325.705 522.523 319.672 519.751C313.802 516.816 308.828 512.82 304.752 507.766C300.839 502.548 297.903 496.351 295.946 489.177C293.99 481.839 293.011 473.767 293.011 464.962C293.011 444.743 297.087 429.823 305.24 420.202C313.556 410.582 324.482 405.772 338.016 405.771C345.353 405.771 334.787 424.034 339.842 424.85C345.06 425.665 363.487 424.02 367.237 425.813L376.661 382.535C372.258 380.742 366.633 379.192 359.784 377.888C353.099 376.583 344.864 375.931 335.081 375.931ZM720.472 424.85C706.938 424.85 696.584 428.029 689.409 434.389C682.235 440.748 678.646 449.961 678.646 462.027C678.647 469.365 680.033 475.398 682.805 480.127C685.577 484.693 689.002 488.524 693.078 491.622C697.155 494.557 701.638 496.922 706.53 498.716C711.422 500.346 715.906 501.977 719.982 503.607C724.059 505.238 727.484 507.032 730.256 508.988C733.028 510.945 734.414 513.554 734.414 516.815C734.414 521.055 732.946 524.072 730.011 525.865C727.239 527.659 723.488 528.556 718.76 528.556C712.237 528.556 705.878 527.578 699.682 525.621C693.485 523.501 688.512 521.381 684.762 519.262L675.956 542.986C680.685 545.921 686.8 548.45 694.301 550.569C701.965 552.852 710.118 553.993 718.76 553.993C734.577 553.993 746.399 550.487 754.226 543.476C762.215 536.301 766.211 526.517 766.211 514.125C766.211 506.951 764.825 501.08 762.053 496.515C759.281 491.949 755.856 488.28 751.779 485.508C747.703 482.573 743.219 480.209 738.327 478.415C733.435 476.621 728.951 474.99 724.875 473.522C720.798 471.892 717.374 470.18 714.602 468.387C711.83 466.593 710.443 464.228 710.443 461.293C710.443 453.955 715.173 450.287 724.63 450.287C730.5 450.287 736.289 451.102 741.996 452.732C747.703 454.363 752.432 455.912 756.183 457.38L763.275 434.389C759.036 431.943 753.166 429.741 745.665 427.784C738.164 425.827 729.766 424.85 720.472 424.85ZM399.064 379.355V550.569H430.861V472.545C432.329 466.838 435.263 462.19 439.666 458.603C444.232 454.852 449.205 452.978 454.586 452.978C461.924 452.978 466.979 455.178 469.751 459.581C472.523 463.984 473.909 471.159 473.909 481.105V550.569H505.706V474.501C505.706 465.044 504.89 457.135 503.26 450.775C501.792 444.253 499.428 439.117 496.167 435.366C493.069 431.616 489.155 428.926 484.427 427.295C479.698 425.664 474.235 424.85 468.039 424.85C459.234 424.85 451.978 426.398 446.271 429.496C440.563 432.594 435.753 436.753 431.84 441.971H430.861V379.355H399.064ZM589.581 425.583C583.222 425.583 577.678 427.213 572.949 430.475C568.221 433.736 564.47 438.383 561.698 444.416H560.72L557.051 428.273H532.348V550.569H564.144V471.566C565.448 466.838 567.976 463.005 571.727 460.07C575.64 456.972 580.45 455.423 586.157 455.423C590.234 455.423 594.8 456.32 599.854 458.113L604.013 428.273C598.632 426.48 593.821 425.583 589.581 425.583ZM620.788 428.273V550.569H652.585V428.273H620.788ZM635.943 377.644C629.747 377.644 624.855 379.355 621.268 382.779C617.843 386.041 616.131 390.036 616.131 394.765C616.131 399.493 617.844 403.488 621.268 406.749C624.855 409.847 629.747 411.396 635.943 411.396C642.14 411.396 647.113 409.847 650.863 406.749C654.777 403.488 656.733 399.493 656.733 394.765C656.733 390.036 654.777 386.041 650.863 382.779C647.113 379.355 642.14 377.644 635.943 377.644Z" fill="white"/>
<path d="M431.299 770.667V685.078H592.702L444.264 777.852C438.62 781.38 431.299 777.322 431.299 770.667Z" fill="white"/>
</svg>
